<svg xmlns="http://www.w3.org/2000/svg" width="1280" height="758" viewBox="0 0 1280 758">
    <defs>
        <linearGradient id="a" x1="0%" y1="0%" y2="100%">
            <stop offset="0%" stop-color="#FD4747"/>
            <stop offset="100%" stop-color="#F96"/>
        </linearGradient>
    </defs>
    <g fill="none" fill-rule="evenodd" transform="translate(-170 -374)">
        <path fill="url(#a)" d="M119 354h1440v755.92c-185.89-59.505-328.706-86.505-428.445-80.997-297.43 16.422-330.423 86.32-592.32 97.019-160.459 6.554-300.204-17.342-419.235-71.69V354z"/>
        <rect width="982.437" height="200" x="767" y="538" fill="#FFF" opacity=".1" rx="100" transform="rotate(-30 1258.219 638)"/>
        <rect width="982.437" height="200" x="-15.811" y="232.212" fill="#FFF" opacity=".05" rx="100" transform="rotate(-30 475.408 332.212)"/>
        <rect width="982.437" height="200" x="1269.189" y="615.212" fill="#FFF" opacity=".1" rx="100" transform="rotate(-30 1760.408 715.212)"/>
        <rect width="982.437" height="200" x="984.189" y="596.212" fill="#FFF" opacity=".05" rx="100" transform="rotate(-30 1475.408 696.212)"/>
        <path fill="#FFF" d="M119 962c90.691 1.14 147.852 33.438 291.79 73.684 95.96 26.83 251.592 36.186 466.899 28.066-289.545 90.422-542.442 87.24-758.689-9.543" opacity=".1"/>
        <path fill="#FFF" d="M219.463 1091.703c177.495-39.93 326.298-64.166 446.41-72.707 120.11-8.54 264.443-4.649 432.996 11.676-47.952 1.289-168.775 24.311-362.468 69.066s-366.005 42.077-516.938-8.035z" opacity=".1"/>
        <path fill="#FFF" d="M1164.79 1025.398c84.91-27.52 233.3-41.968 393.364-14.16v98.418c-167.983-51.846-299.105-79.932-393.364-84.258z" opacity=".2"/>
    </g>
</svg>
